<?xml version="1.0" standalone="no"?>
<!DOCTYPE svg PUBLIC "-//W3C//DTD SVG 20010904//EN"
 "http://www.w3.org/TR/2001/REC-SVG-20010904/DTD/svg10.dtd">
<svg version="1.0" xmlns="http://www.w3.org/2000/svg"
 width="450.000000pt" height="470.000000pt" viewBox="0 0 450.000000 470.000000"
 preserveAspectRatio="xMidYMid meet">
<metadata>
Created by potrace 1.11, written by Peter Selinger 2001-2013
</metadata>
<g transform="translate(0.000000,470.000000) scale(0.100000,-0.100000)"
fill="#000000" stroke="none">
<path d="M1531 4294 l-31 -26 0 -240 0 -240 29 -29 29 -29 165 0 c163 0 166 0
196 26 l31 26 0 243 0 243 -31 26 c-30 26 -33 26 -194 26 -161 0 -164 0 -194
-26z m360 -24 c18 -10 19 -24 19 -243 0 -168 -3 -236 -12 -245 -18 -18 -318
-17 -342 1 -17 13 -19 31 -17 242 1 146 6 234 13 242 13 16 309 18 339 3z"/>
<path d="M1580 4055 l0 -175 145 0 145 0 0 175 0 175 -145 0 -145 0 0 -175z
m270 0 l0 -155 -125 0 -125 0 0 155 0 155 125 0 125 0 0 -155z"/>
<path d="M2620 4313 c-30 -11 -50 -37 -56 -72 -3 -20 -14 -42 -23 -49 -15 -12
-15 -14 2 -26 22 -17 23 -72 1 -80 -16 -6 -16 -8 0 -24 22 -25 21 -78 -1 -87
-17 -6 -17 -7 0 -19 9 -7 17 -26 17 -41 0 -15 -8 -34 -17 -41 -17 -13 -17 -15
-2 -27 9 -7 19 -26 23 -44 14 -62 30 -68 208 -71 253 -5 248 -11 248 298 0
230 -5 255 -55 278 -26 12 -314 16 -345 5z m342 -50 c16 -15 18 -36 18 -236 0
-191 -2 -223 -17 -239 -14 -16 -34 -18 -174 -18 -130 0 -160 3 -173 16 -21 20
-20 44 2 60 16 13 16 15 0 28 -23 17 -25 76 -3 76 8 0 15 7 15 15 0 8 -7 15
-15 15 -22 0 -20 59 3 76 16 13 16 15 0 28 -10 7 -18 26 -18 41 0 15 8 34 18
41 16 13 16 15 0 25 -23 13 -23 47 -1 71 14 16 34 18 171 18 131 0 158 -3 174
-17z"/>
<path d="M2717 4132 c-37 -40 -4 -124 79 -202 58 -54 79 -60 115 -31 l24 20
-27 27 c-25 26 -29 27 -53 14 -23 -12 -28 -11 -54 14 -15 15 -34 38 -41 51
-12 22 -11 26 10 43 23 19 23 19 4 50 -21 37 -34 40 -57 14z"/>
<path d="M3631 4294 l-31 -26 0 -233 c0 -150 4 -243 11 -258 18 -40 49 -47
219 -47 156 0 159 0 189 26 l31 26 0 187 0 186 -83 83 -82 82 -112 0 c-105 0
-113 -1 -142 -26z m229 -67 c0 -71 25 -96 104 -104 l57 -6 -3 -159 c-3 -144
-5 -161 -22 -174 -15 -11 -57 -14 -177 -14 -133 0 -159 2 -170 17 -11 12 -14
65 -14 238 0 173 3 226 14 238 11 14 33 17 112 17 l99 0 0 -53z"/>
<path d="M508 4285 c-43 -24 -71 -79 -66 -130 10 -82 74 -192 168 -285 102
-102 152 -129 209 -112 47 15 91 54 91 82 0 28 -44 85 -85 110 -36 22 -77 16
-88 -14 -4 -9 -13 -16 -21 -16 -16 0 -73 61 -112 119 -22 34 -24 44 -14 56 7
8 19 15 26 15 8 0 19 11 26 25 13 29 1 65 -43 125 -31 43 -49 48 -91 25z m69
-58 c38 -56 38 -64 -1 -100 -28 -26 -34 -39 -29 -58 15 -58 126 -189 161 -189
11 0 34 11 51 25 l30 26 40 -37 c23 -20 41 -43 41 -50 0 -18 -58 -54 -86 -54
-29 0 -130 75 -182 136 -52 60 -123 198 -124 242 -1 23 7 41 27 62 36 38 45
37 72 -3z"/>
<path d="M1565 3110 c-128 -128 -148 -153 -139 -168 6 -9 23 -18 38 -20 l26
-3 0 -103 c0 -66 4 -106 12 -114 9 -9 72 -12 223 -12 151 0 214 3 223 12 8 8
12 48 12 114 l0 103 26 3 c15 2 32 11 38 20 9 15 -11 40 -139 168 -82 82 -154
150 -160 150 -6 0 -78 -68 -160 -150z m385 -148 l-30 -3 0 -115 0 -114 -65 0
-65 0 0 80 0 80 -65 0 -65 0 0 -80 0 -80 -65 0 -65 0 0 115 0 115 -32 0 c-32
0 -29 4 97 130 l130 130 128 -127 c125 -125 127 -128 97 -131z"/>
<path d="M630 3238 c-13 -7 -35 -29 -48 -48 -21 -30 -23 -43 -19 -94 3 -37 13
-69 26 -87 12 -16 21 -30 21 -33 0 -2 -20 -14 -45 -26 -80 -39 -125 -113 -125
-207 l0 -43 235 0 235 0 0 52 c0 89 -54 170 -137 205 -18 7 -33 16 -33 19 0 2
9 17 21 33 27 37 36 128 16 167 -32 62 -96 89 -147 62z m90 -46 c30 -25 39
-106 16 -150 -50 -96 -145 -38 -133 82 5 55 31 86 72 86 13 0 33 -8 45 -18z
m28 -268 c69 -29 122 -95 122 -154 l0 -30 -195 0 -195 0 0 30 c0 114 153 202
268 154z"/>
<path d="M2595 3226 c-40 -17 -84 -63 -101 -103 -8 -18 -14 -58 -14 -90 0 -74
30 -136 82 -170 30 -20 38 -31 34 -47 -12 -52 -18 -96 -12 -96 3 0 40 25 81
55 l74 55 92 0 c112 0 162 20 205 81 30 43 42 118 30 184 -8 43 -68 113 -113
132 -44 18 -316 18 -358 -1z m363 -46 c50 -31 72 -75 72 -145 0 -70 -22 -114
-72 -145 -27 -16 -51 -20 -132 -20 -98 0 -99 0 -148 -37 l-50 -36 7 31 c6 28
3 33 -35 57 -58 37 -80 77 -80 150 0 70 22 114 72 145 29 18 51 20 183 20 132
0 154 -2 183 -20z"/>
<path d="M3673 3105 c-41 -18 -73 -69 -73 -118 0 -21 -7 -49 -17 -63 -23 -36
-21 -108 4 -142 39 -54 71 -62 258 -62 145 0 176 3 212 19 76 35 105 136 58
207 -20 31 -73 64 -101 64 -12 0 -27 7 -35 16 -20 25 -65 44 -103 44 -21 0
-50 10 -72 25 -41 28 -83 31 -131 10z m254 -88 c12 -12 10 -16 -12 -31 -21
-14 -24 -20 -14 -32 10 -13 15 -13 35 1 47 31 125 12 150 -36 24 -48 18 -87
-20 -125 l-34 -34 -176 0 c-197 0 -224 7 -246 59 -34 83 50 158 135 119 20 -9
28 -9 38 1 9 10 8 15 -7 26 -16 13 -17 17 -5 31 35 42 124 54 156 21z"/>
<path d="M1639 2180 c-38 -11 -103 -57 -127 -89 -50 -68 -66 -166 -41 -255 14
-50 92 -133 147 -157 125 -54 286 4 348 124 26 48 30 154 9 216 -21 66 -88
133 -152 155 -49 17 -139 20 -184 6z m191 -50 c78 -40 123 -116 123 -205 0
-131 -97 -228 -228 -228 -131 0 -228 97 -228 228 0 173 180 284 333 205z"/>
<path d="M2686 2180 c-73 -23 -141 -94 -166 -174 -16 -50 -8 -161 14 -204 25
-49 91 -109 141 -128 33 -12 64 -15 120 -12 65 4 82 10 125 39 28 19 65 56 83
84 28 43 32 60 36 127 2 64 -1 85 -19 124 -26 53 -76 106 -123 131 -37 19
-167 27 -211 13z m194 -50 c78 -40 123 -116 123 -205 0 -131 -97 -228 -228
-228 -131 0 -228 97 -228 228 0 173 180 284 333 205z"/>
<path d="M2700 1920 c0 -66 3 -120 7 -120 13 0 203 112 203 120 0 7 -191 120
-204 120 -3 0 -6 -54 -6 -120z"/>
<path d="M3736 2180 c-45 -14 -102 -58 -128 -98 -43 -65 -51 -98 -46 -176 4
-62 10 -83 37 -124 54 -84 125 -122 232 -122 95 0 168 41 221 123 26 40 32 62
36 123 7 110 -31 188 -120 245 -43 28 -60 33 -127 35 -42 2 -89 -1 -105 -6z"/>
<path d="M618 2156 c-123 -34 -194 -154 -168 -282 28 -135 152 -211 303 -184
60 11 107 28 107 39 -1 25 -18 29 -60 15 -24 -8 -72 -15 -106 -15 -79 0 -134
26 -171 83 -24 36 -28 52 -28 113 0 61 4 77 28 113 35 53 95 85 162 85 57 0
125 -30 150 -65 43 -62 39 -159 -9 -207 -23 -23 -28 -24 -41 -10 -13 12 -13
27 -4 102 9 68 9 91 0 100 -10 9 -15 8 -25 -4 -10 -15 -14 -15 -31 -3 -54 39
-144 -2 -166 -76 -34 -112 71 -217 151 -152 23 18 24 18 42 0 71 -71 181 78
149 200 -11 38 -40 83 -71 110 -47 41 -142 58 -212 38z m98 -167 c36 -40 12
-139 -37 -154 -45 -15 -91 52 -74 107 11 34 46 68 70 68 12 0 30 -9 41 -21z"/>
<path d="M395 1095 c-25 -24 -25 -25 -25 -220 0 -195 0 -196 25 -220 l24 -25
260 0 260 0 20 26 c20 25 21 40 21 221 0 193 0 194 -25 218 l-24 25 -256 0
-256 0 -24 -25z m529 -21 c13 -13 16 -46 16 -204 0 -177 -1 -190 -19 -200 -26
-14 -466 -14 -492 0 -18 10 -19 23 -19 200 0 158 3 191 16 204 23 24 475 24
498 0z"/>
<path d="M450 875 l0 -165 223 2 222 3 3 163 2 162 -225 0 -225 0 0 -165z
m430 43 l0 -99 -31 23 c-17 13 -37 27 -44 32 -8 6 -28 0 -60 -18 -52 -31 -45
-34 -128 43 l-37 35 -55 -54 -55 -54 0 97 0 97 178 2 c97 2 189 1 205 -1 l27
-3 0 -100z"/>
<path d="M1445 1075 c-25 -24 -25 -27 -25 -200 0 -173 0 -176 25 -200 l24 -25
256 0 256 0 24 26 c25 26 25 30 25 201 0 171 0 174 -25 198 l-24 25 -256 0
-256 0 -24 -25z m504 -12 c21 -5 13 -15 -90 -119 -71 -71 -121 -114 -134 -114
-13 0 -64 43 -134 114 -91 92 -110 115 -95 119 28 7 425 7 453 0z m-371 -135
c101 -100 111 -108 147 -108 36 0 47 8 149 110 60 61 111 110 112 110 2 0 4
-74 4 -165 0 -91 -3 -165 -8 -165 -4 0 -39 32 -77 70 -38 39 -74 70 -79 70 -6
0 25 -35 68 -79 70 -70 76 -79 56 -84 -29 -7 -418 -8 -448 0 -22 5 -19 11 49
79 40 40 70 77 66 81 -4 4 -41 -26 -82 -67 l-75 -74 0 168 c0 93 2 167 5 165
2 -2 53 -52 113 -111z"/>
<path d="M2514 1067 l-27 -23 1 -195 1 -194 26 -22 c25 -22 32 -23 260 -23
233 0 234 0 262 24 l28 24 0 192 0 192 -28 24 c-18 15 -41 24 -62 24 -31 0
-34 -3 -37 -31 -6 -63 -68 -67 -68 -4 l0 35 -95 0 -95 0 0 -39 c0 -31 -4 -41
-20 -46 -30 -9 -50 12 -50 51 0 32 -2 34 -34 34 -22 0 -45 -9 -62 -23z m516
-248 c0 -72 -5 -139 -10 -150 -10 -18 -24 -19 -245 -19 -221 0 -235 1 -245 19
-5 11 -10 78 -10 150 l0 131 255 0 255 0 0 -131z"/>
<path d="M3762 1033 l3 -58 60 0 60 0 0 55 0 55 -63 3 -63 3 3 -58z"/>
<path d="M3612 878 l3 -63 55 0 55 0 0 60 0 60 -58 3 -58 3 3 -63z"/>
<path d="M3777 933 c-15 -4 -18 -14 -16 -56 1 -29 7 -55 13 -59 19 -13 93 -9
105 6 7 8 11 36 9 63 l-3 48 -45 2 c-25 0 -53 -1 -63 -4z"/>
<path d="M3924 927 c-3 -8 -4 -36 -2 -63 l3 -49 55 0 55 0 0 60 0 60 -53 3
c-38 2 -54 -1 -58 -11z"/>
<path d="M3764 766 c-3 -7 -4 -33 -2 -57 l3 -44 60 0 60 0 3 34 c2 19 1 44 -2
57 -6 22 -12 24 -62 24 -37 0 -56 -4 -60 -14z"/>
</g>
</svg>
